<?xml version="1.0" standalone="no"?>
<!DOCTYPE svg PUBLIC "-//W3C//DTD SVG 20010904//EN"
 "http://www.w3.org/TR/2001/REC-SVG-20010904/DTD/svg10.dtd">
<svg version="1.0" xmlns="http://www.w3.org/2000/svg"
 width="500.000000pt" height="207.000000pt" viewBox="0 0 500.000000 207.000000"
 preserveAspectRatio="xMidYMid meet">

<g transform="translate(0.000000,207.000000) scale(0.100000,-0.100000)"
fill="#000000" stroke="none">
<path d="M0 1035 l0 -1035 2500 0 2500 0 0 1035 0 1035 -2500 0 -2500 0 0
-1035z m2617 560 c79 -33 117 -97 111 -186 -11 -156 -189 -223 -306 -115 -37
33 -52 71 -52 131 0 83 35 136 110 169 45 20 91 20 137 1z m-315 -435 c13 -20
13 -20 29 1 24 32 39 15 39 -47 0 -41 -4 -54 -15 -54 -9 0 -15 9 -15 24 0 19
-4 23 -20 19 -11 -3 -20 -14 -20 -24 0 -12 -7 -19 -20 -19 -17 0 -20 7 -20 53
0 70 17 88 42 47z m162 -2 c21 -30 21 -98 1 -98 -9 0 -18 7 -21 15 -4 8 -10
15 -15 15 -5 0 -9 -7 -9 -15 0 -8 -9 -15 -20 -15 -25 0 -27 34 -6 85 18 41 47
46 70 13z m104 0 c2 -11 -5 -18 -20 -20 -22 -3 -21 -4 5 -9 22 -5 27 -3 27 13
0 21 41 44 64 35 24 -10 19 -37 -6 -38 -19 -1 -18 -2 6 -10 17 -4 30 -7 31 -6
1 1 6 14 13 30 24 56 82 18 82 -55 0 -27 -4 -38 -15 -38 -9 0 -18 7 -21 15 -8
19 -24 20 -24 1 0 -18 -120 -21 -132 -3 -6 9 -8 9 -8 0 0 -8 -15 -13 -40 -13
-29 0 -40 4 -40 15 0 9 10 15 28 16 l27 1 -25 7 c-32 9 -42 66 -13 74 32 9 58
2 61 -15z m290 0 c2 -13 -3 -18 -20 -19 -20 -1 -21 -2 -3 -6 30 -7 38 -19 31
-47 -6 -23 -12 -26 -46 -26 -29 0 -40 4 -40 15 0 9 10 15 28 16 l27 1 -25 7
c-32 9 -42 66 -13 74 32 9 58 2 61 -15z m-825 -420 c-13 -62 -28 -129 -32
-148 -6 -30 -11 -35 -38 -38 l-31 -3 15 72 c13 60 13 73 1 80 -7 5 -19 8 -27
6 -17 -3 -61 -128 -61 -174 0 -36 -2 -38 -31 -23 -26 15 -24 61 6 135 29 70
28 65 15 65 -6 0 -15 -12 -20 -26 -12 -31 -44 -29 -48 4 -3 18 4 26 32 37 19
8 42 15 50 15 9 0 40 25 69 55 45 46 59 55 89 55 l35 0 -24 -112z m271 89 c22
-22 23 -22 37 -3 17 22 46 17 56 -10 9 -24 -24 -46 -48 -33 -16 8 -19 6 -19
-11 0 -15 7 -20 25 -20 29 0 29 -3 11 -88 -12 -56 -12 -64 2 -69 8 -4 20 1 27
10 7 10 16 17 21 17 8 0 64 91 64 104 0 16 -28 4 -33 -14 -6 -24 -25 -26 -33
-5 -12 30 15 45 82 45 l64 0 -23 -37 c-13 -21 -35 -59 -50 -85 -27 -46 -27
-48 -7 -48 11 0 20 7 20 15 0 8 9 15 20 15 23 0 27 -31 7 -49 -9 -6 -54 -10
-116 -10 -124 2 -128 5 -107 103 l13 66 -29 -25 c-16 -14 -38 -25 -48 -25 -23
0 -37 -24 -46 -79 -6 -37 -9 -41 -35 -41 -19 0 -29 5 -29 15 0 13 20 113 45
221 3 15 14 23 35 26 34 5 34 4 16 -74 -8 -32 -11 -58 -6 -58 20 0 60 63 60
94 0 42 -16 56 -62 56 -52 0 -88 -35 -88 -85 0 -29 -3 -36 -17 -33 -11 2 -19
14 -21 31 -9 81 152 144 212 84z m797 -3 c9 -11 10 -20 3 -32 -15 -23 -29 -25
-48 -7 -12 12 -13 21 -6 36 13 23 33 25 51 3z m-221 -87 c-1 -7 -7 -39 -15
-72 -17 -72 -18 -75 -5 -75 5 0 17 36 26 80 17 77 18 80 46 80 15 0 28 -5 28
-12 0 -9 3 -9 12 0 7 7 38 12 69 12 l56 0 -13 -57 c-16 -69 -18 -103 -4 -103
6 0 10 14 10 30 0 66 45 130 91 130 13 0 43 0 67 0 39 1 42 -1 37 -22 -16 -74
-25 -114 -25 -125 0 -19 28 -16 39 4 5 10 13 14 17 10 4 -4 -1 -20 -13 -35
-23 -32 -79 -43 -89 -18 -5 13 -9 13 -27 1 -15 -9 -48 -13 -97 -12 l-75 2 1
64 c1 51 -3 68 -18 83 -25 25 -43 11 -53 -40 -3 -20 -11 -54 -16 -74 l-10 -38
-54 0 c-39 0 -57 4 -63 16 -8 14 -10 14 -21 0 -16 -19 -62 -21 -79 -4 -9 9
-15 9 -24 0 -12 -12 -138 -18 -138 -7 0 3 20 41 45 84 25 43 45 81 45 84 0 16
-28 5 -33 -13 -6 -24 -25 -26 -33 -5 -12 30 15 45 82 45 l64 0 -23 -37 c-13
-21 -35 -59 -50 -85 -27 -46 -27 -48 -7 -48 11 0 20 7 20 15 0 8 7 15 15 15 8
0 15 8 15 18 1 37 39 103 68 115 35 15 132 10 132 -6z"/>
<path d="M2451 1541 c-27 -21 -23 -51 7 -51 25 0 42 19 42 47 0 28 -17 29 -49
4z"/>
<path d="M2594 1545 c-8 -21 14 -45 41 -45 33 0 37 11 13 37 -25 27 -46 30
-54 8z"/>
<path d="M2521 1486 c-7 -8 -11 -25 -9 -38 2 -18 9 -23 32 -23 36 0 56 27 40
53 -14 22 -48 27 -63 8z"/>
<path d="M2430 1460 c0 -5 5 -10 11 -10 5 0 7 5 4 10 -3 6 -8 10 -11 10 -2 0
-4 -4 -4 -10z"/>
<path d="M2628 1463 c7 -3 16 -2 19 1 4 3 -2 6 -13 5 -11 0 -14 -3 -6 -6z"/>
<path d="M2612 1428 c-36 -36 6 -91 46 -62 26 18 28 37 6 58 -19 19 -36 20
-52 4z"/>
<path d="M2426 1409 c-17 -25 -12 -45 16 -60 15 -8 24 -7 39 7 23 21 24 37 3
58 -21 22 -40 20 -58 -5z"/>
<path d="M2514 1315 c-11 -27 4 -45 36 -45 34 0 49 22 30 45 -16 19 -59 19
-66 0z"/>
<path d="M2610 1320 c0 -5 5 -10 11 -10 5 0 7 5 4 10 -3 6 -8 10 -11 10 -2 0
-4 -4 -4 -10z"/>
<path d="M2425 1130 c-3 -5 -1 -10 4 -10 6 0 11 5 11 10 0 6 -2 10 -4 10 -3 0
-8 -4 -11 -10z"/>
<path d="M2715 1130 c-3 -5 -1 -10 4 -10 6 0 11 5 11 10 0 6 -2 10 -4 10 -3 0
-8 -4 -11 -10z"/>
<path d="M2580 1099 c0 -5 11 -9 25 -9 14 0 25 2 25 4 0 2 -11 6 -25 8 -14 3
-25 1 -25 -3z"/>
<path d="M1951 779 c-31 -42 -29 -58 6 -59 10 0 36 90 28 98 -2 2 -17 -15 -34
-39z"/>
<path d="M2776 715 c-19 -19 -39 -91 -32 -111 8 -20 34 -17 45 4 5 10 13 42
17 70 7 55 -1 65 -30 37z"/>
<path d="M3169 685 c-23 -51 -22 -88 2 -93 19 -3 35 30 44 92 6 39 5 46 -9 46
-11 0 -25 -18 -37 -45z"/>
</g>
</svg>
